<?xml version="1.0" encoding="UTF-8" standalone="no"?>
<svg
   xmlns:dc="http://purl.org/dc/elements/1.1/"
   xmlns:cc="http://creativecommons.org/ns#"
   xmlns:rdf="http://www.w3.org/1999/02/22-rdf-syntax-ns#"
   xmlns:svg="http://www.w3.org/2000/svg"
   xmlns="http://www.w3.org/2000/svg"
   xmlns:sodipodi="http://sodipodi.sourceforge.net/DTD/sodipodi-0.dtd"
   xmlns:inkscape="http://www.inkscape.org/namespaces/inkscape"
   width="256"
   height="256"
   version="1"
   id="svg12"
   sodipodi:docname="kodi-playing.svg"
   inkscape:version="1.0.1 (3bc2e813f5, 2020-09-07)">
  <metadata
     id="metadata18">
    <rdf:RDF>
      <cc:Work
         rdf:about="">
        <dc:format>image/svg+xml</dc:format>
        <dc:type
           rdf:resource="http://purl.org/dc/dcmitype/StillImage" />
        <dc:title></dc:title>
      </cc:Work>
    </rdf:RDF>
  </metadata>
  <defs
     id="defs16" />
  <sodipodi:namedview
     pagecolor="#ffffff"
     bordercolor="#666666"
     borderopacity="1"
     objecttolerance="10"
     gridtolerance="10"
     guidetolerance="10"
     inkscape:pageopacity="0"
     inkscape:pageshadow="2"
     inkscape:window-width="1920"
     inkscape:window-height="1007"
     id="namedview14"
     showgrid="false"
     inkscape:zoom="1.9182346"
     inkscape:cx="16"
     inkscape:cy="83.048748"
     inkscape:window-x="0"
     inkscape:window-y="0"
     inkscape:window-maximized="1"
     inkscape:current-layer="svg12"
     inkscape:document-rotation="0" />
  <path
     id="path4"
     style="fill:#31afe1;stroke-width:7.66685"
     d="m 127.99631,13 c -6.02419,0 -12.05828,2.25028 -16.56152,6.753438 L 74.328602,56.859907 V 166.47224 L 182.80206,58.012934 144.54285,19.753438 C 140.03962,15.25028 134.02051,13 127.99631,13 Z m 71.06778,61.27509 -54.55118,54.53663 53.74257,53.72801 37.98967,-37.98996 c 9.00646,-9.00632 9.00647,-24.08703 0,-33.09334 z M 51.328156,79.875502 19.747467,111.45643 c -9.006469,9.00631 -8.991748,24.07205 0.01495,33.07837 l 31.565739,31.56596 z M 128.2359,145.07388 74.328602,198.99656 v 0.11983 l 37.121158,37.12145 c 9.00647,9.0063 24.08662,9.02102 33.09309,0.0153 l 37.43563,-37.43591 z" />
</svg>
